<mxfile host="app.diagrams.net" modified="2023-04-07T14:27:02.192Z" agent="Mozilla/5.0 (Windows NT 10.0; Win64; x64; rv:109.0) Gecko/20100101 Firefox/111.0" version="21.1.2" etag="QRFuAOqAQoA30ZTyBS2c" type="github">
  <diagram name="PÃ¡gina-1" id="9NL37g2mlJrOGcVyUzYD">
    <mxGraphModel>
      <root>
        <mxCell id="0" />
        <mxCell id="1" parent="0" />
      </root>
    </mxGraphModel>
  </diagram>
</mxfile>
